# xmcd
#
# Track frame offsets:
#	150
#	17826
#	32801
#	46837
#	65653
#	82502
#	100455
#	118060
#	134237
#	153826
#	170219
#	188165
#	204104
#	221900
#	236796
#	254107
#	273708
#	287500
#	302983
#	326812
#
# Disc length: 4611 seconds
#
# Revision: 1
# Processed by: cddbd v1.5.2PL0 Copyright (c) Steve Scherf et al.
# Submitted via: audiograbber 1.83.01
#
DISCID=37120114
DTITLE=Various Artist - Ultimate Club 80 Disc 3
DYEAR=2005
DGENRE=Club
TTITLE0=David Bowie and Queen - Under Pressure
TTITLE1=Madness - Our House
TTITLE2=UB 40 - I Got You Babe
TTITLE3=Matt Bianco - More Than I Can Bear
TTITLE4=Samantha Fox - Touch Me
TTITLE5=Opus  - Live Is Life
TTITLE6=Murray Head - One Night In Bangkok
TTITLE7=Hong Kong Syndikat - Too Much
TTITLE8=Bryan Ferry - Don't Stop The Dance
TTITLE9=Paul Hardcastle - Nineteen
TTITLE10=Double - The Captain Of Her Heart
TTITLE11=Rick Astley - Never Gonna Give You Up
TTITLE12=Moon Ray - Comanchero
TTITLE13=Scotch - Take Me Up
TTITLE14=Paula Abdul - Cold Hearted
TTITLE15=Killing Joke - Love Like Blood
TTITLE16=Living In A Box - Living In A Box
TTITLE17=Johnny Hates Jazz - Shattered Dreams
TTITLE18=Alpha Blondy - Sweet Fanta Diallo
TTITLE19=Laid Back - Sunshine Reggae
EXTD=
EXTT0=
EXTT1=
EXTT2=
EXTT3=
EXTT4=
EXTT5=
EXTT6=
EXTT7=
EXTT8=
EXTT9=
EXTT10=
EXTT11=
EXTT12=
EXTT13=
EXTT14=
EXTT15=
EXTT16=
EXTT17=
EXTT18=
EXTT19=
PLAYORDER=
